<?xml version="1.0" encoding="UTF-8"?>
<svg xmlns="http://www.w3.org/2000/svg" viewBox="0 0 256 256">
  <defs>
    <style>
      .cls-1 {
        fill: #041017;
      }
    </style>
  </defs>
  <g id="Layer_1" data-name="Layer 1">
    <path class="cls-1" d="M221.51,16c10.16.05,18.45,9.63,18.49,21.33v127.96c-.03,11.76-8.33,21.34-18.46,21.38h-101.63c-5.13,0-10.06,1.91-13.88,5.37l-30.95,27.95v-17.32c0-8.84-7.16-16-16-16h-24.57c-10.18-.03-18.48-9.62-18.51-21.33V37.38c.03-11.76,8.33-21.34,18.46-21.38h187.05M221.54,0H34.46C15.45.06.05,16.74,0,37.33v128c.05,20.59,15.45,37.27,34.46,37.33h24.62v53.33l57.67-52.09c.89-.8,2-1.24,3.16-1.24h101.63c19.01-.06,34.41-16.74,34.46-37.33V37.33c-.05-20.59-15.45-37.27-34.46-37.33h0Z"/>
    <text/>
  </g>
  <g id="Layer_3" data-name="Layer 3">
    <g>
      <path class="cls-1" d="M58.64,138.8V63.86c0-2.21,1.79-4,4-4h47.94c2.21,0,4,1.79,4,4v6.14c0,2.21-1.79,4-4,4h-30.96c-2.21,0-4,1.79-4,4v11.93c0,2.21,1.79,4,4,4h28.07c2.21,0,4,1.79,4,4v5.92c0,2.21-1.79,4-4,4h-28.07c-2.21,0-4,1.79-4,4v12.82c0,2.21,1.79,4,4,4h31.08c2.21,0,4,1.79,4,4v6.14c0,2.21-1.79,4-4,4h-48.05c-2.21,0-4-1.79-4-4Z"/>
      <path class="cls-1" d="M164.24,143.92c-7.38,0-13.99-1.67-19.82-5.01-5.83-3.34-10.43-8.18-13.8-14.53-3.38-6.35-5.07-14.01-5.07-22.99s1.7-16.71,5.09-23.07c3.39-6.36,8.02-11.22,13.86-14.56,5.85-3.34,12.42-5.01,19.73-5.01,4.71,0,9.1.66,13.16,1.98,4.06,1.32,7.68,3.26,10.85,5.82,3.17,2.56,5.76,5.67,7.77,9.32,1.26,2.3,2.25,4.8,2.97,7.49.67,2.51-1.29,4.95-3.89,4.95h-9.22c-1.73,0-3.26-1.12-3.8-2.77-.39-1.21-.9-2.32-1.51-3.36-1.06-1.78-2.38-3.29-3.95-4.54-1.58-1.24-3.4-2.19-5.46-2.84-2.06-.65-4.26-.97-6.6-.97-4.38,0-8.19,1.09-11.44,3.26-3.25,2.17-5.77,5.3-7.57,9.38-1.8,4.08-2.7,9.06-2.7,14.92s.91,10.95,2.73,15.03c1.82,4.08,4.34,7.17,7.57,9.27,3.23,2.1,7.01,3.15,11.36,3.15,2.34,0,4.53-.32,6.57-.97,2.04-.65,3.87-1.6,5.48-2.87,1.62-1.26,2.95-2.78,4.01-4.56.62-1.04,1.13-2.15,1.53-3.35.55-1.62,2.07-2.72,3.78-2.72h9.24c2.66,0,4.59,2.55,3.85,5.11-.61,2.1-1.43,4.13-2.46,6.11-1.86,3.54-4.31,6.7-7.38,9.46-3.06,2.77-6.69,4.94-10.88,6.51-4.2,1.58-8.87,2.37-14.03,2.37Z"/>
    </g>
  </g>
</svg>